# xmcd
#
# Track frame offsets:
#   150
#   14765
#   29970
#   44495
#   59425
#   78250
#   93480
#   109715
#   125790
#   140810
#
# Disc length: 2068 seconds
#
# Revision: 0
# Processed by: cddbd v1.5.2PL0 Copyright (c) Steve Scherf et al.
# Submitted via: uFREEDB ActiveX Control 1.5
#
DISCID=9808120a
DTITLE=Um toque a mais - ...
DYEAR=1900
DGENRE=Alternative
TTITLE0=1
TTITLE1=2
TTITLE2=3
TTITLE3=4
TTITLE4=5
TTITLE5=6
TTITLE6=7
TTITLE7=8
TTITLE8=9
TTITLE9=10
EXTD=
EXTT0=
EXTT1=
EXTT2=
EXTT3=
EXTT4=
EXTT5=
EXTT6=
EXTT7=
EXTT8=
EXTT9=
PLAYORDER=
